<svg width="176" height="34" viewBox="0 0 176 34" fill="none" xmlns="http://www.w3.org/2000/svg">
<path d="M42.4514 7.72857C43.4552 7.72857 44.3619 7.86619 45.1714 8.14143C45.9971 8.41667 46.6933 8.81333 47.26 9.33143C47.8267 9.83333 48.2638 10.4486 48.5714 11.1771C48.879 11.9057 49.0329 12.7152 49.0329 13.6057C49.0329 14.4962 48.879 15.3057 48.5714 16.0343C48.2638 16.7467 47.8267 17.3619 47.26 17.88C46.6933 18.3819 46.0052 18.7705 45.1957 19.0457C44.3862 19.321 43.4714 19.4586 42.4514 19.4586H39.1243V24H35.9429V7.72857H42.4514ZM42.2329 16.5443C43.3014 16.5443 44.1433 16.2852 44.7586 15.7671C45.3738 15.249 45.6814 14.5529 45.6814 13.6786C45.6814 12.7881 45.3738 12.0919 44.7586 11.59C44.1433 11.0719 43.3014 10.8129 42.2329 10.8129H39.1243V16.5443H42.2329ZM50.5961 17.6614C50.5961 16.7224 50.7661 15.8562 51.1061 15.0629C51.4461 14.2533 51.9075 13.5571 52.4903 12.9743C53.0894 12.3752 53.7937 11.9138 54.6032 11.59C55.4127 11.25 56.287 11.08 57.2261 11.08C58.1651 11.08 59.0394 11.25 59.8489 11.59C60.6584 11.9138 61.3627 12.3752 61.9618 12.9743C62.5608 13.5571 63.0303 14.2533 63.3703 15.0629C63.7103 15.8562 63.8803 16.7224 63.8803 17.6614C63.8803 18.5843 63.7103 19.4505 63.3703 20.26C63.0303 21.0533 62.5608 21.7495 61.9618 22.3486C61.3627 22.9314 60.6584 23.3929 59.8489 23.7329C59.0394 24.0567 58.1651 24.2186 57.2261 24.2186C56.287 24.2186 55.4127 24.0567 54.6032 23.7329C53.7937 23.3929 53.0894 22.9314 52.4903 22.3486C51.8913 21.7495 51.4218 21.0533 51.0818 20.26C50.758 19.4505 50.5961 18.5843 50.5961 17.6614ZM53.8018 17.6614C53.8018 18.131 53.8827 18.5843 54.0446 19.0214C54.2065 19.4424 54.4332 19.8148 54.7246 20.1386C55.0323 20.4624 55.3965 20.7214 55.8175 20.9157C56.2546 21.11 56.7323 21.2071 57.2503 21.2071C57.7684 21.2071 58.238 21.11 58.6589 20.9157C59.0799 20.7214 59.4361 20.4624 59.7275 20.1386C60.0351 19.8148 60.2699 19.4424 60.4318 19.0214C60.5937 18.5843 60.6746 18.131 60.6746 17.6614C60.6746 17.1919 60.5937 16.7386 60.4318 16.3014C60.2699 15.8643 60.0351 15.4838 59.7275 15.16C59.4361 14.8362 59.0799 14.5771 58.6589 14.3829C58.238 14.1886 57.7684 14.0914 57.2503 14.0914C56.7323 14.0914 56.2546 14.1886 55.8175 14.3829C55.3965 14.5771 55.0323 14.8362 54.7246 15.16C54.4332 15.4838 54.2065 15.8643 54.0446 16.3014C53.8827 16.7386 53.8018 17.1919 53.8018 17.6614ZM65.904 14.9657C65.904 13.7352 66.3574 12.78 67.264 12.1C68.1707 11.42 69.4336 11.08 71.0526 11.08C72.704 11.08 73.9669 11.4281 74.8412 12.1243C75.7317 12.8205 76.1931 13.8 76.2255 15.0629H73.1169C73.1007 14.5933 72.9064 14.221 72.534 13.9457C72.1778 13.6543 71.6921 13.5086 71.0769 13.5086C70.3969 13.5086 69.8788 13.63 69.5226 13.8729C69.1664 14.0995 68.9883 14.4314 68.9883 14.8686C68.9883 15.3219 69.1745 15.6619 69.5469 15.8886C69.9193 16.099 70.3807 16.269 70.9312 16.3986C71.4978 16.5281 72.105 16.6576 72.7526 16.7871C73.4002 16.9005 73.9993 17.0867 74.5497 17.3457C75.1164 17.5886 75.5859 17.9448 75.9583 18.4143C76.3307 18.8676 76.5169 19.499 76.5169 20.3086C76.5169 21.5229 76.0636 22.4781 75.1569 23.1743C74.2664 23.8543 72.9388 24.1943 71.174 24.1943C69.3607 24.1943 67.9845 23.83 67.0455 23.1014C66.1064 22.3729 65.6369 21.3933 65.6369 20.1629H68.7455C68.8912 21.2314 69.7169 21.7657 71.2226 21.7657C72.6636 21.7657 73.384 21.3286 73.384 20.4543C73.384 20.0171 73.1978 19.6933 72.8255 19.4829C72.4531 19.2724 71.9916 19.1105 71.4412 18.9971C70.8907 18.8676 70.2916 18.7462 69.644 18.6329C68.9964 18.5195 68.3974 18.3333 67.8469 18.0743C67.2964 17.8152 66.835 17.451 66.4626 16.9814C66.0902 16.4957 65.904 15.8238 65.904 14.9657ZM83.4704 7.58286V11.3229H86.6275V13.8729H83.4704V19.6043C83.4704 20.3167 83.6323 20.7943 83.9561 21.0371C84.2799 21.28 84.7251 21.4014 85.2918 21.4014C85.5023 21.4014 85.7128 21.3933 85.9232 21.3771C86.1499 21.3448 86.3847 21.3124 86.6275 21.28V24.0729C85.8828 24.17 85.1947 24.2186 84.5632 24.2186C83.9156 24.2186 83.3328 24.1538 82.8147 24.0243C82.2966 23.8948 81.8594 23.6762 81.5032 23.3686C81.147 23.0448 80.8718 22.6319 80.6775 22.13C80.4994 21.6119 80.4104 20.9805 80.4104 20.2357V13.8729H78.249V11.3229H80.4104V7.58286H83.4704ZM88.2816 17.6614C88.2816 16.7224 88.4516 15.8562 88.7916 15.0629C89.1316 14.2533 89.593 13.5571 90.1759 12.9743C90.7749 12.3752 91.4792 11.9138 92.2888 11.59C93.0983 11.25 93.9726 11.08 94.9116 11.08C95.7373 11.08 96.5064 11.2095 97.2188 11.4686C97.9473 11.7114 98.5949 12.0595 99.1616 12.5129C99.7283 12.95 100.198 13.4843 100.57 14.1157C100.943 14.7471 101.185 15.4433 101.299 16.2043H98.0202C97.8097 15.5729 97.4373 15.0629 96.903 14.6743C96.3688 14.2695 95.713 14.0671 94.9359 14.0671C94.4178 14.0671 93.9402 14.1643 93.503 14.3586C93.0821 14.5529 92.7178 14.82 92.4102 15.16C92.1188 15.4838 91.884 15.8643 91.7059 16.3014C91.544 16.7224 91.463 17.1757 91.463 17.6614C91.463 18.131 91.544 18.5843 91.7059 19.0214C91.884 19.4424 92.1188 19.8229 92.4102 20.1629C92.7178 20.4867 93.0821 20.7457 93.503 20.94C93.9402 21.1343 94.4178 21.2314 94.9359 21.2314C95.6968 21.2314 96.3445 21.0371 96.8788 20.6486C97.4292 20.26 97.8097 19.7581 98.0202 19.1429H101.299C101.169 19.8876 100.918 20.5757 100.546 21.2071C100.174 21.8224 99.704 22.3567 99.1373 22.81C98.5868 23.2471 97.9473 23.5952 97.2188 23.8543C96.5064 24.0971 95.7373 24.2186 94.9116 24.2186C93.9726 24.2186 93.0983 24.0567 92.2888 23.7329C91.4792 23.3929 90.7749 22.9314 90.1759 22.3486C89.593 21.7495 89.1316 21.0533 88.7916 20.26C88.4516 19.4505 88.2816 18.5843 88.2816 17.6614ZM103.644 11.3229H106.704V13.7757C107.223 12.869 107.894 12.1971 108.72 11.76C109.562 11.3067 110.461 11.08 111.416 11.08V14.31C110.865 14.2938 110.315 14.3748 109.764 14.5529C109.214 14.7148 108.712 14.9576 108.259 15.2814C107.822 15.6052 107.457 16.0181 107.166 16.52C106.891 17.0057 106.737 17.5724 106.704 18.22V24H103.644V11.3229ZM125.92 24H122.86V22.3243C122.472 22.9233 121.954 23.3929 121.306 23.7329C120.659 24.0567 119.849 24.2186 118.878 24.2186C117.987 24.2186 117.161 24.0567 116.4 23.7329C115.656 23.3929 115.008 22.9314 114.458 22.3486C113.907 21.7495 113.478 21.0533 113.17 20.26C112.879 19.4505 112.733 18.5843 112.733 17.6614C112.733 16.7224 112.879 15.8562 113.17 15.0629C113.478 14.2533 113.907 13.5571 114.458 12.9743C115.008 12.3752 115.656 11.9138 116.4 11.59C117.161 11.25 117.995 11.08 118.902 11.08C119.873 11.08 120.675 11.25 121.306 11.59C121.954 11.9138 122.472 12.3752 122.86 12.9743V11.3229H125.92V24ZM122.86 17.0786C122.747 16.2367 122.383 15.5324 121.768 14.9657C121.152 14.3829 120.367 14.0914 119.412 14.0914C118.878 14.0914 118.392 14.1886 117.955 14.3829C117.518 14.5771 117.145 14.8362 116.838 15.16C116.546 15.4838 116.32 15.8643 116.158 16.3014C115.996 16.7386 115.915 17.2 115.915 17.6857C115.915 18.1552 115.996 18.6005 116.158 19.0214C116.32 19.4424 116.546 19.8148 116.838 20.1386C117.145 20.4624 117.518 20.7214 117.955 20.9157C118.392 21.11 118.878 21.2071 119.412 21.2071C119.881 21.2071 120.319 21.1343 120.723 20.9886C121.128 20.8267 121.476 20.6162 121.768 20.3571C122.075 20.0819 122.318 19.7662 122.496 19.41C122.69 19.0376 122.812 18.649 122.86 18.2443V17.0786ZM137.23 6.17428V8.89428H134.825C133.692 8.89428 133.125 9.58238 133.125 10.9586V11.3229H136.793V13.8729H133.125V24H130.09V13.8729H128.001V11.3229H130.09V10.8614C130.09 9.32333 130.446 8.15762 131.158 7.36428C131.871 6.57095 132.939 6.17428 134.364 6.17428H137.23ZM143.212 7.58286V11.3229H146.369V13.8729H143.212V19.6043C143.212 20.3167 143.374 20.7943 143.698 21.0371C144.022 21.28 144.467 21.4014 145.034 21.4014C145.244 21.4014 145.455 21.3933 145.665 21.3771C145.892 21.3448 146.127 21.3124 146.369 21.28V24.0729C145.625 24.17 144.937 24.2186 144.305 24.2186C143.658 24.2186 143.075 24.1538 142.557 24.0243C142.038 23.8948 141.601 23.6762 141.245 23.3686C140.889 23.0448 140.614 22.6319 140.419 22.13C140.241 21.6119 140.152 20.9805 140.152 20.2357V13.8729H137.991V11.3229H140.152V7.58286H143.212ZM148.485 14.9657C148.485 13.7352 148.938 12.78 149.845 12.1C150.752 11.42 152.014 11.08 153.634 11.08C155.285 11.08 156.548 11.4281 157.422 12.1243C158.313 12.8205 158.774 13.8 158.806 15.0629H155.698C155.682 14.5933 155.487 14.221 155.115 13.9457C154.759 13.6543 154.273 13.5086 153.658 13.5086C152.978 13.5086 152.46 13.63 152.104 13.8729C151.747 14.0995 151.569 14.4314 151.569 14.8686C151.569 15.3219 151.755 15.6619 152.128 15.8886C152.5 16.099 152.962 16.269 153.512 16.3986C154.079 16.5281 154.686 16.6576 155.334 16.7871C155.981 16.9005 156.58 17.0867 157.131 17.3457C157.697 17.5886 158.167 17.9448 158.539 18.4143C158.912 18.8676 159.098 19.499 159.098 20.3086C159.098 21.5229 158.644 22.4781 157.738 23.1743C156.847 23.8543 155.52 24.1943 153.755 24.1943C151.942 24.1943 150.565 23.83 149.626 23.1014C148.687 22.3729 148.218 21.3933 148.218 20.1629H151.326C151.472 21.2314 152.298 21.7657 153.804 21.7657C155.244 21.7657 155.965 21.3286 155.965 20.4543C155.965 20.0171 155.779 19.6933 155.406 19.4829C155.034 19.2724 154.573 19.1105 154.022 18.9971C153.472 18.8676 152.873 18.7462 152.225 18.6329C151.577 18.5195 150.978 18.3333 150.428 18.0743C149.877 17.8152 149.416 17.451 149.044 16.9814C148.671 16.4957 148.485 15.8238 148.485 14.9657Z" fill="black"/>
<rect y="6.91077" width="24" height="15" rx="3" transform="rotate(-6.9662 0 6.91077)" fill="#FDC73D"/>
<rect x="6.72998" y="13" width="21.2767" height="13.298" rx="3" transform="rotate(7.63483 6.72998 13)" fill="#2A59FF"/>
</svg>
